<?xml version="1.0" encoding="UTF-8"?>
<svg width="142px" height="137px" viewBox="0 0 142 137" version="1.1" xmlns="http://www.w3.org/2000/svg" xmlns:xlink="http://www.w3.org/1999/xlink">
    <!-- Generator: Sketch 46.2 (44496) - http://www.bohemiancoding.com/sketch -->
    <title>CURRENTLY AVAILABLE</title>
    <desc>Created with Sketch.</desc>
    <defs></defs>
    <g id="2018" stroke="none" stroke-width="1" fill="none" fill-rule="evenodd">
        <g id="Desktop-HD" transform="translate(-387.000000, -428.000000)" fill="#FFFFFF">
            <g id="Available" transform="translate(361.000000, 403.000000)">
                <path d="M127.023841,160.979512 C128.958113,160.161837 129.728302,158.316304 129.001948,156.130635 L127.845898,156.452137 C128.381461,158.186476 127.92685,159.412221 126.59865,159.97369 C124.960966,160.665988 123.340629,159.709405 122.364871,157.401173 C121.400016,155.118732 121.844895,153.258722 123.469683,152.571875 C124.720513,152.043113 125.87633,152.512084 126.790365,153.919237 L127.766,153.278814 C126.695874,151.466461 124.836918,150.808342 123.044493,151.566054 C120.826527,152.503654 120.10077,155.029582 121.294574,157.85362 C122.504732,160.716343 124.780085,161.928014 127.023841,160.979512 Z M141.203926,151.754381 C142.995657,150.457214 143.107682,148.630443 141.835144,146.872732 L138.066791,141.667639 L137.125565,142.349062 L140.869288,147.520135 C141.813429,148.824243 141.77694,149.991394 140.563552,150.869855 C139.350165,151.748316 138.252647,151.402158 137.283876,150.064029 L133.564783,144.926977 L132.623557,145.6084 L136.39191,150.813493 C137.664447,152.571204 139.423535,153.043338 141.203926,151.754381 Z M150.886013,141.831955 L143.542957,135.341999 L146.00914,132.551638 C147.36276,131.020086 148.996866,130.820126 150.350086,132.016132 C151.524975,133.054525 151.697384,134.402699 150.847812,135.744473 L150.868792,135.763016 L155.317726,136.817697 L154.418403,137.835235 L150.057787,136.765189 L148.676353,138.32821 L151.655536,140.961278 L150.886013,141.831955 Z M147.858127,137.605044 L149.489888,135.75879 C150.444838,134.678312 150.48271,133.684146 149.580563,132.886808 C148.688906,132.098742 147.726689,132.257266 146.762467,133.348235 L145.130706,135.194489 L147.858127,137.605044 Z M160.427227,127.686157 L151.799862,123.037655 L153.566292,119.759257 C154.535837,117.959835 156.081555,117.393228 157.671455,118.24988 C159.051834,118.99364 159.526539,120.2672 159.004625,121.767112 L159.029275,121.780393 L163.60149,121.794899 L162.95734,122.990406 L158.467628,122.940838 L157.478161,124.777235 L160.978406,126.663198 L160.427227,127.686157 Z M156.516826,124.259259 L157.685592,122.090093 C158.369586,120.820638 158.180209,119.843941 157.120276,119.272839 C156.072667,118.708378 155.171777,119.081726 154.481142,120.363506 L153.312376,122.532672 L156.516826,124.259259 Z M166.367465,111.542357 L167.970004,105.160487 L166.910885,104.894533 L165.591348,110.149393 L162.264628,109.314027 L163.488694,104.439364 L162.470311,104.18364 L161.246245,109.058303 L158.204672,108.29454 L159.524209,103.039681 L158.46509,102.773728 L156.862552,109.155598 L166.367465,111.542357 Z M167.974697,94.7079491 L167.95794,93.5320685 L160.426705,93.6393886 L160.426306,93.6113915 L167.897897,89.3184963 L167.880941,88.1286171 L158.081936,88.2682529 L158.098493,89.430135 L165.61573,89.3230143 L165.616129,89.3510115 L158.158736,93.6577058 L158.175692,94.847585 L167.974697,94.7079491 Z M164.7154,75.2221204 L164.422794,74.0975647 L155.9954,76.2903487 L155.121107,72.9302303 L154.064296,73.2052097 L156.109014,81.063551 L157.165825,80.7885716 L156.288007,77.4149044 L164.7154,75.2221204 Z M158.722195,61.8505743 L155.452165,55.8201099 L154.492213,56.3406454 L157.20834,61.349623 L149.553343,65.5005595 L150.107246,66.5220463 L158.722195,61.8505743 Z M146.900265,46.3376133 L146.119035,45.4774251 L143.300105,48.0376004 L136.436034,49.3922735 L137.339626,50.38719 L142.877644,49.1966806 L142.896469,49.217408 L141.179888,54.615585 L142.08348,55.6105015 L144.081335,48.8977886 L146.900265,46.3376133 Z M114.340076,27.7079321 L114.346975,29.7987541 L118.762003,31.4220651 L120.121661,29.8336965 L121.238558,30.2443555 L114.374569,38.1620419 L113.323372,37.7755392 L113.223179,27.2972731 L114.340076,27.7079321 Z M118.054541,32.2508379 L114.34907,30.8884162 L114.376934,36.4922831 L114.403214,36.5019456 L118.054541,32.2508379 Z M100.991705,26.0017937 L99.7671891,25.866204 L95.0568316,35.2045255 L96.2813476,35.3401152 L100.196045,27.4631031 L100.223875,27.4661847 L102.320438,36.0088189 L103.544954,36.1444086 L100.991705,26.0017937 Z M80.2786136,27.5587127 L81.2508784,29.4097355 L85.9163878,28.8092034 L86.3882092,26.7723017 L87.568472,26.6203814 L85.1399376,36.8138264 L84.0291021,36.9568102 L79.0983509,27.710633 L80.2786136,27.5587127 Z M85.6719535,29.8710979 L81.7562582,30.3751159 L84.3704571,35.3319358 L84.3982279,35.3283612 L85.6719535,29.8710979 Z M67.2811546,41.6963705 L67.6764624,42.7143075 L73.5491758,40.4336854 L73.153868,39.4157484 L70.7525808,40.3482694 L67.995562,33.2488115 L70.3968493,32.3162904 L70.0015414,31.2983534 L64.128828,33.5789755 L64.5241359,34.5969125 L66.9123726,33.6694595 L69.6693914,40.7689175 L67.2811546,41.6963705 Z M55.0089114,39.7218189 L49.3931571,43.6617305 L50.0203267,44.5556669 L54.684841,41.2831281 L59.6861165,48.4116979 L60.6373565,47.7443251 L55.0089114,39.7218189 Z M38.54803,55.9737175 L40.5020209,56.7176957 L43.6017727,53.1794539 L42.6072288,51.3403057 L43.3913922,50.4452147 L48.3179844,59.6936086 L47.5799483,60.5360471 L37.7638666,56.8688084 L38.54803,55.9737175 Z M44.1214106,54.1372349 L41.5198332,57.1068307 L46.760327,59.0921077 L46.7787779,59.0710468 L44.1214106,54.1372349 Z M33.371327,65.4371158 L42.0681543,69.9543268 L40.3258015,73.3088173 C39.532063,74.8369741 38.1148264,75.3786938 36.7606061,74.6752996 C35.9157715,74.2364848 35.4573453,73.5093222 35.5007035,72.7272735 L35.4758554,72.7143672 C34.7771004,73.3610831 33.722871,73.507645 32.7165238,72.9849391 C31.0392786,72.1137627 30.6932662,70.593092 31.7386779,68.5803977 L33.371327,65.4371158 Z M37.8426026,69.0689339 L36.7326593,71.2058686 C36.1454219,72.3364562 36.3147192,73.1343048 37.2465221,73.6182917 C38.1162048,74.0700128 38.8791927,73.7248498 39.459977,72.6066863 L40.5634671,70.4821756 L37.8426026,69.0689339 Z M33.8047899,66.9716574 L32.7851909,68.9346556 C31.9914524,70.4628124 32.1339725,71.3729596 33.252136,71.9537439 C34.3454514,72.5216218 35.1029507,72.1262804 35.9031424,70.5856996 L36.9356477,68.5978533 L33.8047899,66.9716574 Z M27.6151292,81.7929269 L26.0069933,88.4617723 L27.0685646,88.7177613 L28.404302,83.1785366 L36.8696527,85.2198847 L37.1420512,84.0902639 L27.6151292,81.7929269 Z M26.0043597,98.6414285 L26.0232246,105.221401 L27.1152201,105.218271 L27.0996867,99.800293 L30.5296726,99.7904591 L30.5440822,104.816438 L31.5940778,104.813428 L31.5796683,99.7874488 L34.7156554,99.7784578 L34.7311888,105.196436 L35.8231843,105.193305 L35.8043194,98.6133318 L26.0043597,98.6414285 Z" id="CURRENTLY-AVAILABLE"></path>
            </g>
        </g>
    </g>
</svg>