<?xml version="1.0" encoding="UTF-8"?>
<svg width="81px" height="81px" viewBox="0 0 81 81" version="1.1" xmlns="http://www.w3.org/2000/svg" xmlns:xlink="http://www.w3.org/1999/xlink">
    <!-- Generator: Sketch 50.2 (55047) - http://www.bohemiancoding.com/sketch -->
    <title>dharma</title>
    <desc>Created with Sketch.</desc>
    <defs></defs>
    <g id="2018" stroke="none" stroke-width="1" fill="none" fill-rule="evenodd">
        <g id="Desktop-HD" transform="translate(-1023.000000, -1777.000000)" fill="#FFFFFF" fill-rule="nonzero">
            <g id="Group-7-Copy-2" transform="translate(902.500000, 1697.105469)">
                <g id="dharma" transform="translate(120.953125, 80.160156)">
                    <path d="M24.0802658,45.4548377 L39.0635451,36.2817225 L39.0635451,3.13642983 C33.7074647,3.26993703 28.6349223,4.54550007 24.0802658,6.72877131 L24.0802658,45.4548377 Z M20.8695652,47.4205051 L20.8695652,8.46896647 C10.2307277,14.937575 3.1247709,26.6389449 3.1247709,40 C3.1247709,45.7495136 4.44061141,51.191696 6.7875755,56.0418304 L20.8695652,47.4205051 Z M42.2742475,58.9419623 L57.257525,49.6601877 L57.257525,7.40393689 C52.7392101,5.00680622 47.663003,3.52163143 42.2742475,3.1937565 L42.2742475,58.9419623 Z M39.0635451,60.9309141 L39.0635451,39.9239609 L8.26007248,58.7825714 C11.4614477,64.1808023 16.0007915,68.6922064 21.4212242,71.8599045 L39.0635451,60.9309141 Z M60.4682274,47.6712361 L76.7955806,37.5568393 C76.4213705,31.8358087 74.7424558,26.4708162 72.0534955,21.7565216 L60.4682274,28.5316928 L60.4682274,47.6712361 Z M60.4682274,9.32230215 L60.4682274,24.9285234 L70.3990114,19.1209096 C67.7415465,15.2591443 64.3672741,11.9289309 60.4682274,9.32230215 Z M60.4553586,5.6187291 L60.4682274,5.6187291 L60.4682274,5.6264053 C72.1655682,12.6067588 80,25.3884647 80,40 C80,62.0913899 62.0913899,80 40,80 C17.90861,80 0,62.0913899 0,40 C0,17.90861 17.90861,0 40,0 C47.4744969,0 54.4701623,2.05012211 60.4553586,5.6187291 Z M24.6426089,73.5349593 C29.3180834,75.6796043 34.5194151,76.875229 40,76.875229 C59.9675273,76.875229 76.228309,61.004765 76.8563982,41.1897835 L24.6426014,73.5349559 L24.6426089,73.5349593 Z" id="Shape"></path>
                </g>
            </g>
        </g>
    </g>
</svg>